<?xml version="1.0" encoding="UTF-8" standalone="no"?>
<!-- Created with Inkscape (http://www.inkscape.org/) -->

<svg
   xmlns:dc="http://purl.org/dc/elements/1.1/"
   xmlns:cc="http://creativecommons.org/ns#"
   xmlns:rdf="http://www.w3.org/1999/02/22-rdf-syntax-ns#"
   xmlns:svg="http://www.w3.org/2000/svg"
   xmlns="http://www.w3.org/2000/svg"
   xmlns:sodipodi="http://sodipodi.sourceforge.net/DTD/sodipodi-0.dtd"
   xmlns:inkscape="http://www.inkscape.org/namespaces/inkscape"
   width="4.2310328mm"
   height="4.2357492mm"
   viewBox="0 0 4.2310331 4.2357493"
   version="1.1"
   id="svg8"
   inkscape:version="0.92.5 (2060ec1f9f, 2020-04-08)"
   sodipodi:docname="person.svg">
  <defs
     id="defs2" />
  <sodipodi:namedview
     id="base"
     pagecolor="#ffffff"
     bordercolor="#666666"
     borderopacity="1.0"
     inkscape:pageopacity="0.0"
     inkscape:pageshadow="2"
     inkscape:zoom="32"
     inkscape:cx="6.1127076"
     inkscape:cy="6.9008207"
     inkscape:document-units="mm"
     inkscape:current-layer="layer1"
     showgrid="false"
     fit-margin-top="0"
     fit-margin-left="0"
     fit-margin-right="0"
     fit-margin-bottom="0"
     inkscape:window-width="1856"
     inkscape:window-height="1019"
     inkscape:window-x="64"
     inkscape:window-y="24"
     inkscape:window-maximized="1" />
  <metadata
     id="metadata5">
    <rdf:RDF>
      <cc:Work
         rdf:about="">
        <dc:format>image/svg+xml</dc:format>
        <dc:type
           rdf:resource="http://purl.org/dc/dcmitype/StillImage" />
        <dc:title></dc:title>
      </cc:Work>
    </rdf:RDF>
  </metadata>
  <g
     inkscape:label="Layer 1"
     inkscape:groupmode="layer"
     id="layer1"
     transform="translate(-34.210288,-200.14262)">
    <path
       inkscape:connector-curvature="0"
       style="fill:#01ac01;fill-opacity:1;stroke:#000000;stroke-width:0.28637487;stroke-miterlimit:4;stroke-dasharray:none;stroke-opacity:1"
       d="m 38.29928,204.1843 c 0,-0.0274 -0.0089,-0.0994 -0.0197,-0.15996 -0.102219,-0.5716 -0.439204,-1.06855 -0.93341,-1.37654 -0.102565,-0.064 -0.244585,-0.13485 -0.330847,-0.16524 l -0.05305,-0.0188 -0.08584,0.0487 c -0.09543,0.0541 -0.23468,0.10778 -0.33562,0.12925 -0.08521,0.0181 -0.343961,0.0182 -0.428809,1.7e-4 -0.103535,-0.022 -0.213441,-0.064 -0.324249,-0.12367 l -0.102417,-0.0553 -0.0748,0.0296 c -0.04114,0.0162 -0.135144,0.0629 -0.208901,0.10349 -0.540778,0.29832 -0.917137,0.8217 -1.029608,1.43181 -0.01046,0.0568 -0.01907,0.12623 -0.01914,0.15455 l -1.48e-4,0.0516 h 1.97327 1.973272 z"
       id="path854" />
    <path
       inkscape:connector-curvature="0"
       style="fill:#c2a284;fill-opacity:1;stroke:#000000;stroke-width:0.30994773;stroke-miterlimit:4;stroke-dasharray:none;stroke-opacity:1"
       d="m 36.58049,202.50324 c 0.399004,-0.10994 0.693142,-0.44897 0.769638,-0.88723 0.02125,-0.12169 0.01544,-0.36025 -0.01136,-0.46838 -0.0842,-0.33946 -0.278467,-0.59785 -0.560478,-0.74548 -0.166608,-0.0872 -0.237202,-0.1033 -0.452476,-0.1033 -0.215278,0 -0.285873,0.0161 -0.45248,0.1033 -0.282012,0.14763 -0.476281,0.40602 -0.560477,0.74548 -0.02683,0.10808 -0.0326,0.34669 -0.01136,0.46838 0.03882,0.2224 0.124677,0.40525 0.267207,0.56914 0.159762,0.18372 0.373245,0.30334 0.614823,0.34454 0.100566,0.0172 0.282805,0.005 0.396974,-0.0263 z"
       id="path828" />
  </g>
</svg>
