<?xml version="1.0" encoding="UTF-8" standalone="no"?>
<!-- Generator: Adobe Illustrator 19.0.0, SVG Export Plug-In . SVG Version: 6.00 Build 0)  -->

<svg
   xmlns:dc="http://purl.org/dc/elements/1.1/"
   xmlns:cc="http://creativecommons.org/ns#"
   xmlns:rdf="http://www.w3.org/1999/02/22-rdf-syntax-ns#"
   xmlns:svg="http://www.w3.org/2000/svg"
   xmlns="http://www.w3.org/2000/svg"
   xmlns:sodipodi="http://sodipodi.sourceforge.net/DTD/sodipodi-0.dtd"
   xmlns:inkscape="http://www.inkscape.org/namespaces/inkscape"
   version="1.1"
   id="Layer_1"
   x="0px"
   y="0px"
   viewBox="0 0 16.000023 15.96633"
   xml:space="preserve"
   sodipodi:docname="personalise.svg"
   width="16.000023"
   height="15.96633"
   inkscape:version="0.92.5 (2060ec1f9f, 2020-04-08)"><metadata
   id="metadata2395"><rdf:RDF><cc:Work
       rdf:about=""><dc:format>image/svg+xml</dc:format><dc:type
         rdf:resource="http://purl.org/dc/dcmitype/StillImage" /><dc:title></dc:title></cc:Work></rdf:RDF></metadata><defs
   id="defs2393" /><sodipodi:namedview
   pagecolor="#ffffff"
   bordercolor="#666666"
   borderopacity="1"
   objecttolerance="10"
   gridtolerance="10"
   guidetolerance="10"
   inkscape:pageopacity="0"
   inkscape:pageshadow="2"
   inkscape:window-width="1807"
   inkscape:window-height="841"
   id="namedview2391"
   showgrid="false"
   fit-margin-top="0"
   fit-margin-left="0"
   fit-margin-right="0"
   fit-margin-bottom="0"
   inkscape:zoom="25.484858"
   inkscape:cx="1.3236258"
   inkscape:cy="7.8104681"
   inkscape:window-x="64"
   inkscape:window-y="24"
   inkscape:window-maximized="0"
   inkscape:current-layer="Layer_1" />
<g
   id="XMLID_1_"
   transform="matrix(0.76781141,0.49768379,-0.49862256,0.76636582,252.6414,-382.27617)"
   style="fill:#8191ba;fill-opacity:1;stroke:#000000;stroke-width:1.02613091;stroke-miterlimit:4;stroke-dasharray:none;stroke-opacity:1">
	<path
   id="XMLID_5_"
   d="m 15.166145,503.68906 c 0,-0.86926 0.551076,-1.6197 1.305675,-1.9105 -0.203523,-0.83799 -0.551076,-1.65097 -0.986301,-2.37326 -0.259883,0.11569 -0.551077,0.1751 -0.839139,0.1751 -0.522897,0 -1.042662,-0.20325 -1.449707,-0.60661 -0.607436,-0.6066 -0.754599,-1.53527 -0.435225,-2.28571 -0.723288,-0.43776 -1.506066,-0.78484 -2.376516,-0.98808 -0.259883,0.78171 -1.0144819,1.33203 -1.884932,1.33203 -0.8704501,0 -1.6219178,-0.55032 -1.9131115,-1.30389 -0.8422701,0.20325 -1.653229,0.55032 -2.3765167,0.98495 0.3475538,0.75357 0.2035225,1.65097 -0.435225,2.28572 -0.407045,0.40649 -0.9268102,0.6066 -1.4497065,0.6066 -0.2911937,0 -0.5792563,-0.0594 -0.8391389,-0.1751 -0.4352251,0.7223 -0.7827789,1.53528 -0.9863014,2.37327 0.7545988,0.29079 1.3056751,1.04123 1.3056751,1.91049 0,0.86926 -0.5510763,1.6197 -1.3056751,1.9105 0.2035225,0.83799 0.5510763,1.65096 0.9863014,2.37326 0.2598826,-0.11569 0.5510763,-0.1751 0.8391389,-0.1751 0.5228963,0 1.0426615,0.20324 1.4497065,0.6066 0.6074364,0.60661 0.7545988,1.53528 0.435225,2.28572 0.7232877,0.43463 1.5373777,0.78171 2.3765167,0.98495 0.2911937,-0.75357 1.0426614,-1.30389 1.9131115,-1.30389 0.8704501,0 1.621918,0.55032 1.913112,1.30389 0.839138,-0.20324 1.653229,-0.55032 2.376516,-0.98495 -0.319374,-0.75357 -0.203522,-1.65097 0.435225,-2.28572 0.407045,-0.40648 0.92681,-0.6066 1.449707,-0.6066 0.291193,0 0.579256,0.0594 0.839139,0.1751 0.435225,-0.7223 0.782778,-1.53527 0.986301,-2.37326 -0.810959,-0.31269 -1.333855,-1.06625 -1.333855,-1.93551 z m -6.637965,3.30193 c -1.8254403,0 -3.3346379,-1.47586 -3.3346379,-3.33008 0,-1.85421 1.4778865,-3.33007 3.3346379,-3.33007 1.856752,0 3.334638,1.53527 3.334638,3.35822 0,1.82294 -1.477886,3.30193 -3.334638,3.30193 z"
   inkscape:connector-curvature="0"
   style="fill:#8191ba;fill-opacity:1;stroke:#000000;stroke-width:1.02613091;stroke-miterlimit:4;stroke-dasharray:none;stroke-opacity:1" />
</g>
</svg>