<?xml version="1.0" encoding="UTF-8" standalone="no"?>
<!-- Created with Inkscape (http://www.inkscape.org/) -->

<svg
   xmlns:dc="http://purl.org/dc/elements/1.1/"
   xmlns:cc="http://creativecommons.org/ns#"
   xmlns:rdf="http://www.w3.org/1999/02/22-rdf-syntax-ns#"
   xmlns:svg="http://www.w3.org/2000/svg"
   xmlns="http://www.w3.org/2000/svg"
   xmlns:sodipodi="http://sodipodi.sourceforge.net/DTD/sodipodi-0.dtd"
   xmlns:inkscape="http://www.inkscape.org/namespaces/inkscape"
   width="4.2408309mm"
   height="4.2320213mm"
   viewBox="0 0 4.240831 4.2320213"
   version="1.1"
   id="svg8"
   inkscape:version="0.92.5 (2060ec1f9f, 2020-04-08)"
   sodipodi:docname="robot-face.svg">
  <title
     id="title5557">robot-face</title>
  <defs
     id="defs2" />
  <sodipodi:namedview
     id="base"
     pagecolor="#ffffff"
     bordercolor="#666666"
     borderopacity="1.0"
     inkscape:pageopacity="0.0"
     inkscape:pageshadow="2"
     inkscape:zoom="43.129538"
     inkscape:cx="7.4287244"
     inkscape:cy="8.1419386"
     inkscape:document-units="mm"
     inkscape:current-layer="layer1"
     showgrid="false"
     fit-margin-top="0"
     fit-margin-left="0"
     fit-margin-right="0"
     fit-margin-bottom="0"
     inkscape:window-width="1856"
     inkscape:window-height="1019"
     inkscape:window-x="64"
     inkscape:window-y="24"
     inkscape:window-maximized="1" />
  <metadata
     id="metadata5">
    <rdf:RDF>
      <cc:Work
         rdf:about="">
        <dc:format>image/svg+xml</dc:format>
        <dc:type
           rdf:resource="http://purl.org/dc/dcmitype/StillImage" />
        <dc:title>robot-face</dc:title>
        <cc:license
           rdf:resource="http://creativecommons.org/licenses/by/4.0/" />
      </cc:Work>
      <cc:License
         rdf:about="http://creativecommons.org/licenses/by/4.0/">
        <cc:permits
           rdf:resource="http://creativecommons.org/ns#Reproduction" />
        <cc:permits
           rdf:resource="http://creativecommons.org/ns#Distribution" />
        <cc:requires
           rdf:resource="http://creativecommons.org/ns#Notice" />
        <cc:requires
           rdf:resource="http://creativecommons.org/ns#Attribution" />
        <cc:permits
           rdf:resource="http://creativecommons.org/ns#DerivativeWorks" />
      </cc:License>
    </rdf:RDF>
  </metadata>
  <g
     inkscape:label="Layer 1"
     inkscape:groupmode="layer"
     id="layer1"
     transform="translate(-85.826594,-153.49554)">
    <path
       inkscape:connector-curvature="0"
       style="fill:#fff200;fill-opacity:1;stroke-width:0.07197267"
       d="m 88.191855,154.10869 c 0.06943,-0.095 0.05699,-0.13793 -0.06135,-0.21169 -0.184024,-0.11467 -0.441,-0.0198 -0.441,0.16294 0,0.22 0.352418,0.2542 0.502369,0.0488 z"
       id="path896" />
    <path
       style="opacity:1;fill:#fff200;fill-opacity:1;fill-rule:nonzero;stroke:#000000;stroke-width:0.26267737;stroke-linecap:butt;stroke-linejoin:miter;stroke-miterlimit:4;stroke-dasharray:none;stroke-dashoffset:0;stroke-opacity:1"
       id="path5485"
       sodipodi:type="arc"
       sodipodi:cx="87.947014"
       sodipodi:cy="154.14993"
       sodipodi:rx="0.53145242"
       sodipodi:ry="0.52347106"
       sodipodi:start="2.3673471"
       sodipodi:end="2.3656852"
       sodipodi:open="true"
       d="m 87.567053,154.51593 a 0.53145242,0.52347106 0 0 1 0.0082,-0.7401 0.53145242,0.52347106 0 0 1 0.751389,0.008 0.53145242,0.52347106 0 0 1 -0.0076,0.74011 0.53145242,0.52347106 0 0 1 -0.751395,-0.007" />
    <path
       inkscape:connector-curvature="0"
       style="fill:#fff200;fill-opacity:1;fill-rule:evenodd;stroke:#000000;stroke-width:0.26267737;stroke-linecap:butt;stroke-linejoin:miter;stroke-miterlimit:4;stroke-dasharray:none;stroke-opacity:1"
       d="m 86.330978,154.76316 v 0.95937 h -0.369319 v 0.73436 h 0.369319 v 1.14295 h 1.616032 1.616032 v -1.14295 h 0.369318 v -0.73436 h -0.369318 v -0.95937 H 87.94701 Z"
       id="path5487" />
    <path
       inkscape:connector-curvature="0"
       style="fill:#ffffff;fill-opacity:1;stroke-width:0.07197267"
       d="m 87.343668,155.6781 c 0,-0.0865 -0.0608,-0.13907 -0.176812,-0.1529 -0.145043,-0.0173 -0.176813,0.0102 -0.176813,0.1529 0,0.14271 0.03174,0.17019 0.176813,0.1529 0.116055,-0.0139 0.176812,-0.0664 0.176812,-0.1529 z"
       id="path922" />
    <path
       style="opacity:1;fill:#0000f4;fill-opacity:1;fill-rule:nonzero;stroke:#f30000;stroke-width:0.18600126;stroke-linecap:butt;stroke-linejoin:miter;stroke-miterlimit:4;stroke-dasharray:none;stroke-dashoffset:0;stroke-opacity:1"
       id="path5485-3"
       sodipodi:type="arc"
       sodipodi:cx="87.154686"
       sodipodi:cy="155.65129"
       sodipodi:rx="0.4028174"
       sodipodi:ry="0.34678972"
       sodipodi:start="2.3673471"
       sodipodi:end="2.3656852"
       sodipodi:open="true"
       d="m 86.866692,155.89376 a 0.4028174,0.34678972 0 0 1 0.0062,-0.49031 0.4028174,0.34678972 0 0 1 0.56952,0.005 0.4028174,0.34678972 0 0 1 -0.0058,0.49031 0.4028174,0.34678972 0 0 1 -0.569524,-0.005" />
    <path
       inkscape:connector-curvature="0"
       style="fill:#000008;fill-opacity:1;fill-rule:evenodd;stroke:#ff6300;stroke-width:0.26267737px;stroke-linecap:butt;stroke-linejoin:miter;stroke-opacity:1"
       d="m 87.778706,156.5397 c -0.302905,-0.0142 -0.909494,-0.009 -0.915382,0.26042 -0.0079,0.35908 1.083686,0.29035 1.083686,0.29035 0,0 1.091547,0.0687 1.083686,-0.29035 -0.0079,-0.35908 -1.083686,-0.24844 -1.083686,-0.24844 0,0 -0.06734,-0.007 -0.168304,-0.012 z"
       id="path5504" />
    <path
       inkscape:connector-curvature="0"
       style="fill:#ffffff;fill-opacity:1;stroke-width:0.07197267"
       d="m 88.550437,155.6781 c 0,-0.0865 0.0608,-0.13907 0.176813,-0.1529 0.145042,-0.0173 0.176813,0.0102 0.176813,0.1529 0,0.14271 -0.03174,0.17019 -0.176813,0.1529 -0.116055,-0.0139 -0.176813,-0.0664 -0.176813,-0.1529 z"
       id="path922-1" />
    <path
       style="opacity:1;fill:#0000f4;fill-opacity:1;fill-rule:nonzero;stroke:#f30000;stroke-width:0.18600126;stroke-linecap:butt;stroke-linejoin:miter;stroke-miterlimit:4;stroke-dasharray:none;stroke-dashoffset:0;stroke-opacity:1"
       id="path5485-3-0"
       sodipodi:type="arc"
       sodipodi:cx="-88.739418"
       sodipodi:cy="155.65129"
       sodipodi:rx="0.4028174"
       sodipodi:ry="0.34678972"
       sodipodi:start="2.3673471"
       sodipodi:end="2.3656852"
       sodipodi:open="true"
       d="m -89.027412,155.89376 a 0.4028174,0.34678972 0 0 1 0.0062,-0.49031 0.4028174,0.34678972 0 0 1 0.56952,0.005 0.4028174,0.34678972 0 0 1 -0.0058,0.49031 0.4028174,0.34678972 0 0 1 -0.569524,-0.005"
       transform="scale(-1,1)" />
  </g>
</svg>
