<?xml version="1.0" encoding="UTF-8" standalone="no"?>
<!-- Created with Inkscape (http://www.inkscape.org/) -->

<svg
   xmlns:dc="http://purl.org/dc/elements/1.1/"
   xmlns:cc="http://creativecommons.org/ns#"
   xmlns:rdf="http://www.w3.org/1999/02/22-rdf-syntax-ns#"
   xmlns:svg="http://www.w3.org/2000/svg"
   xmlns="http://www.w3.org/2000/svg"
   xmlns:sodipodi="http://sodipodi.sourceforge.net/DTD/sodipodi-0.dtd"
   xmlns:inkscape="http://www.inkscape.org/namespaces/inkscape"
   width="4.2333393mm"
   height="4.2333288mm"
   viewBox="0 0 4.2333393 4.2333288"
   version="1.1"
   id="svg8"
   inkscape:version="0.92.5 (2060ec1f9f, 2020-04-08)"
   sodipodi:docname="setup.svg">
  <defs
     id="defs2" />
  <sodipodi:namedview
     id="base"
     pagecolor="#ffffff"
     bordercolor="#666666"
     borderopacity="1.0"
     inkscape:pageopacity="0.0"
     inkscape:pageshadow="2"
     inkscape:zoom="60.930373"
     inkscape:cx="4.4989227"
     inkscape:cy="7.2744524"
     inkscape:document-units="mm"
     inkscape:current-layer="layer1"
     showgrid="false"
     fit-margin-top="0"
     fit-margin-left="0"
     fit-margin-right="0"
     fit-margin-bottom="0"
     inkscape:window-width="1856"
     inkscape:window-height="1019"
     inkscape:window-x="64"
     inkscape:window-y="24"
     inkscape:window-maximized="1" />
  <metadata
     id="metadata5">
    <rdf:RDF>
      <cc:Work
         rdf:about="">
        <dc:format>image/svg+xml</dc:format>
        <dc:type
           rdf:resource="http://purl.org/dc/dcmitype/StillImage" />
        <dc:title />
      </cc:Work>
    </rdf:RDF>
  </metadata>
  <g
     inkscape:label="Layer 1"
     inkscape:groupmode="layer"
     id="layer1"
     transform="translate(-65.726743,-85.41716)">
    <path
       style="fill:#b0a0e3;fill-opacity:1;stroke:#000000;stroke-width:0.2567597;stroke-miterlimit:4;stroke-dasharray:none;stroke-opacity:1"
       d="m 66.187407,88.914848 c -0.06727,-0.02099 -0.111943,-0.05053 -0.163118,-0.107939 -0.05875,-0.06592 -0.09355,-0.133169 -0.12418,-0.24 -0.03814,-0.133047 -0.04506,-0.199244 -0.05206,-0.49834 -0.0067,-0.283468 -0.0016,-0.460578 0.01787,-0.626959 0.05209,-0.445462 0.178178,-0.849102 0.362922,-1.161776 0.03701,-0.06261 0.08976,-0.140897 0.117241,-0.173919 0.213793,-0.256937 0.459077,-0.292964 0.693235,-0.101814 0.02533,0.0207 0.0767,0.06866 0.114133,0.106629 0.113796,0.115393 0.215985,0.183544 0.35062,0.233826 0.12482,0.04665 0.171846,0.05434 0.329611,0.05434 0.157765,0 0.204792,-0.0077 0.329611,-0.05434 0.134636,-0.05032 0.236824,-0.118433 0.350619,-0.233826 0.161912,-0.164194 0.277691,-0.228226 0.412678,-0.228226 0.182975,0 0.352682,0.129244 0.504059,0.383867 0.226076,0.380271 0.360768,0.867087 0.387982,1.402259 0.0086,0.169211 -0.0019,0.650298 -0.01615,0.742222 -0.03788,0.243796 -0.121947,0.402958 -0.25147,0.476155 -0.110848,0.0626 -0.27159,0.04816 -0.423823,-0.03817 -0.09742,-0.05528 -0.150646,-0.10451 -0.314729,-0.291225 -0.202446,-0.230376 -0.265466,-0.283864 -0.398821,-0.338502 -0.159289,-0.06528 -0.304977,-0.08716 -0.579955,-0.08716 -0.274977,0 -0.420665,0.02193 -0.579955,0.08716 -0.133125,0.05456 -0.197118,0.10873 -0.395362,0.334757 -0.08952,0.102065 -0.179406,0.196907 -0.211587,0.223238 -0.06712,0.05492 -0.15358,0.103625 -0.224247,0.126304 -0.06901,0.02214 -0.182995,0.02767 -0.235129,0.01143 z"
       id="path1132"
       inkscape:connector-curvature="0"
       sodipodi:nodetypes="ccccccccccsccscccccccscccccc" />
    <path
       style="fill:#000013;fill-opacity:1;stroke:none;stroke-width:0.2567597;stroke-miterlimit:4;stroke-dasharray:none;stroke-opacity:1"
       d="m 68.738512,87.607887 c 0.04162,-0.02129 0.06958,-0.05132 0.08939,-0.09593 0.05629,-0.126814 -0.02813,-0.277933 -0.155098,-0.277609 -0.149144,3.79e-4 -0.226258,0.193859 -0.128874,0.323369 0.04386,0.0583 0.133496,0.08144 0.194587,0.05018 z"
       id="path7435"
       inkscape:connector-curvature="0" />
    <path
       style="fill:#000013;fill-opacity:1;stroke:none;stroke-width:0.2567597;stroke-miterlimit:4;stroke-dasharray:none;stroke-opacity:1"
       d="m 69.089611,87.119697 c 0.03324,-0.01481 0.08313,-0.07694 0.09375,-0.116737 0.01824,-0.06837 0.006,-0.132342 -0.03529,-0.185047 -0.03162,-0.04032 -0.05309,-0.05427 -0.101239,-0.06592 -0.05448,-0.01315 -0.105017,0.0064 -0.149372,0.05758 -0.06689,0.07724 -0.07014,0.179298 -0.0082,0.258267 0.0539,0.06872 0.122588,0.0865 0.200371,0.05182 z"
       id="path1132-7"
       inkscape:connector-curvature="0" />
    <path
       style="fill:none;fill-rule:evenodd;stroke:#000000;stroke-width:0.26458332;stroke-linecap:round;stroke-linejoin:miter;stroke-miterlimit:4;stroke-dasharray:none;stroke-opacity:1"
       d="m 66.391129,87.335998 h 0.920586"
       id="path7451"
       inkscape:connector-curvature="0"
       sodipodi:nodetypes="cc" />
    <path
       style="fill:none;fill-rule:evenodd;stroke:#000000;stroke-width:0.26458332;stroke-linecap:round;stroke-linejoin:miter;stroke-miterlimit:4;stroke-dasharray:none;stroke-opacity:1"
       d="M 66.851422,87.796291 V 86.875705"
       id="path7451-4"
       inkscape:connector-curvature="0"
       sodipodi:nodetypes="cc" />
  </g>
</svg>
