<?xml version="1.0" encoding="UTF-8" standalone="no"?>
<!-- Uploaded to: SVG Repo, www.svgrepo.com, Generator: SVG Repo Mixer Tools -->

<svg
   xmlns:dc="http://purl.org/dc/elements/1.1/"
   xmlns:cc="http://creativecommons.org/ns#"
   xmlns:rdf="http://www.w3.org/1999/02/22-rdf-syntax-ns#"
   xmlns:svg="http://www.w3.org/2000/svg"
   xmlns="http://www.w3.org/2000/svg"
   xmlns:sodipodi="http://sodipodi.sourceforge.net/DTD/sodipodi-0.dtd"
   xmlns:inkscape="http://www.inkscape.org/namespaces/inkscape"
   height="16.000004"
   width="16.000002"
   version="1.1"
   id="Capa_1"
   viewBox="0 0 1.1800001 1.1800003"
   xml:space="preserve"
   sodipodi:docname="share.svg"
   style="fill:#000000"
   inkscape:version="0.92.5 (2060ec1f9f, 2020-04-08)"><metadata
   id="metadata1462"><rdf:RDF><cc:Work
       rdf:about=""><dc:format>image/svg+xml</dc:format><dc:type
         rdf:resource="http://purl.org/dc/dcmitype/StillImage" /><dc:title></dc:title></cc:Work></rdf:RDF></metadata><defs
   id="defs1460" /><sodipodi:namedview
   pagecolor="#ffffff"
   bordercolor="#666666"
   borderopacity="1"
   objecttolerance="10"
   gridtolerance="10"
   guidetolerance="10"
   inkscape:pageopacity="0"
   inkscape:pageshadow="2"
   inkscape:window-width="1563"
   inkscape:window-height="985"
   id="namedview1458"
   showgrid="false"
   fit-margin-top="0"
   fit-margin-left="0"
   fit-margin-right="0"
   fit-margin-bottom="0"
   inkscape:zoom="42.605835"
   inkscape:cx="5.8928434"
   inkscape:cy="8.9368603"
   inkscape:window-x="64"
   inkscape:window-y="24"
   inkscape:window-maximized="0"
   inkscape:current-layer="Capa_1" />
<path
   d="m 0.94336894,0.76882377 c -0.0539342,0 -0.10463755,0.0195764 -0.14278117,0.0551341 -0.0105807,0.009864 -0.0196875,0.0207059 -0.0275633,0.0321694 L 0.42409835,0.65868725 c 0.009224,-0.0215341 0.0144574,-0.0449506 0.0144574,-0.0695154 0,-0.0245647 -0.005233,-0.0479812 -0.0144376,-0.0695154 L 0.77312593,0.32372242 c 0.0358618,0.0524801 0.0986807,0.0874542 0.17024301,0.0874542 0.11134156,0 0.20192516,-0.0844424 0.20192516,-0.18823537 0,-0.10379297 -0.090583,-0.18823536 -0.20192516,-0.18823536 -0.11134145,0 -0.20192509,0.08444239 -0.20192509,0.18823536 0,0.0236424 0.004903,0.046193 0.0134683,0.0670495 L 0.40546062,0.48618837 c -0.0361042,-0.0512753 -0.0982567,-0.0852518 -0.16882956,-0.0852518 -0.11134155,0 -0.20192517,0.0844424 -0.20192517,0.18823537 0,0.10379298 0.09058353,0.18823536 0.20192517,0.18823536 0.0705732,0 0.13270513,-0.0339764 0.16880942,-0.0852518 L 0.75485167,0.8898591 c -0.008687,0.0211953 -0.013408,0.04384 -0.013408,0.0672001 0,0.0502776 0.0210005,0.0975624 0.0591436,0.1331012 0.0381442,0.035558 0.0888476,0.055134 0.14278174,0.055134 0.0539342,0 0.10463769,-0.019577 0.14278129,-0.055134 0.038143,-0.035539 0.059144,-0.082823 0.059144,-0.1331012 0,-0.0502777 -0.021,-0.0975624 -0.059144,-0.13310123 C 1.048007,0.78840023 0.9973032,0.7688238 0.94336894,0.76882377 Z"
   id="path1455"
   inkscape:connector-curvature="0"
   style="fill:#00fe00;fill-opacity:1;stroke:#000000;stroke-width:0.06941178;stroke-miterlimit:4;stroke-dasharray:none;stroke-opacity:1" />
</svg>